<svg xmlns="http://www.w3.org/2000/svg" viewBox="0 0 1200 705" preserveAspectRatio="xMidYMid slice" fill="none">
	<defs>
		<linearGradient id="bg" x1="0" y1="0" x2="0.3" y2="1">
			<stop offset="0" stop-color="#7d5c3a"/>
			<stop offset=".55" stop-color="#a67c4e"/>
			<stop offset="1" stop-color="#4d3420"/>
		</linearGradient>
		<radialGradient id="glow" cx=".5" cy=".5" r=".55">
			<stop offset="0" stop-color="#f6e6c8" stop-opacity=".7"/>
			<stop offset="1" stop-color="#f6e6c8" stop-opacity="0"/>
		</radialGradient>
		<linearGradient id="veil" x1="0" y1="0" x2="1" y2="0">
			<stop offset="0" stop-color="#000" stop-opacity="0"/>
			<stop offset="1" stop-color="#000" stop-opacity=".4"/>
		</linearGradient>
	</defs>
	<rect width="1200" height="705" fill="url(#bg)"/>
	<circle cx="620" cy="350" r="210" fill="url(#glow)"/>
	<g fill="#f2e3c4" opacity=".16">
		<circle cx="370" cy="470" r="78"/><circle cx="880" cy="250" r="58"/><circle cx="890" cy="560" r="88"/>
	</g>
	<g stroke="#eedcb8" stroke-opacity=".55" stroke-width="2.5" stroke-linecap="round">
		<path d="M620 350c-86-4-138-54-134-122 4-68 78-96 134-40"/>
		<path d="M620 350c86-4 138-54 134-122-4-68-78-96-134-40"/>
		<path d="M620 350c-4 86-54 138-122 134-68-4-96-78-40-134"/>
		<path d="M620 350c-4 86 54 138 122 134 68-4 96-78 40-134"/>
	</g>
	<g stroke="#d1b588" stroke-opacity=".7" stroke-width="3">
		<path d="M528 336c24-48 68-74 120-74"/>
		<path d="M712 358c-24 48-68 74-120 74"/>
	</g>
	<g fill="#f9edd4">
		<circle cx="620" cy="350" r="7"/>
		<circle cx="512" cy="252" r="4" opacity=".8"/>
		<circle cx="726" cy="448" r="4" opacity=".8"/>
		<circle cx="508" cy="448" r="4" opacity=".8"/>
		<circle cx="732" cy="252" r="4" opacity=".8"/>
	</g>
	<rect width="1200" height="705" fill="url(#veil)"/>
</svg>