<svg xmlns="http://www.w3.org/2000/svg" viewBox="0 0 1200 705" preserveAspectRatio="xMidYMid slice" fill="none">
	<defs>
		<linearGradient id="bg" x1="0" y1="0" x2="1" y2="1">
			<stop offset="0" stop-color="#0d3a52"/>
			<stop offset=".55" stop-color="#1b6b8f"/>
			<stop offset="1" stop-color="#082433"/>
		</linearGradient>
		<radialGradient id="glow" cx=".5" cy=".55" r=".55">
			<stop offset="0" stop-color="#d6f4fa" stop-opacity=".85"/>
			<stop offset="1" stop-color="#d6f4fa" stop-opacity="0"/>
		</radialGradient>
		<linearGradient id="veil" x1="0" y1="1" x2="0" y2="0">
			<stop offset="0" stop-color="#000" stop-opacity="0"/>
			<stop offset="1" stop-color="#000" stop-opacity=".35"/>
		</linearGradient>
	</defs>
	<rect width="1200" height="705" fill="url(#bg)"/>
	<circle cx="620" cy="352" r="205" fill="url(#glow)"/>
	<g stroke="#b8eaf6" stroke-opacity=".4" stroke-width="2.5">
		<path d="M430 470c80-60 160-60 240 0 80 60 160 60 240 0"/>
		<path d="M470 520c66-48 130-48 196 0 66 48 132 48 198 0"/>
	</g>
	<g stroke="#9fe0f2" stroke-opacity=".7" stroke-width="3" fill="none">
		<path d="M460 470c70-50 140-50 210 0 70 50 140 50 210 0" stroke-dasharray="2 26" stroke-linecap="round"/>
	</g>
	<g fill="#ffffff" opacity=".5">
		<circle cx="620" cy="392" r="5"/><circle cx="652" cy="414" r="4"/><circle cx="586" cy="414" r="4"/><circle cx="508" cy="388" r="3"/><circle cx="732" cy="388" r="3"/>
		<circle cx="620" cy="436" r="4"/><circle cx="556" cy="432" r="2.5"/><circle cx="684" cy="432" r="2.5"/>
	</g>
	<g fill="#eafafd">
		<circle cx="620" cy="352" r="7"/><circle cx="710" cy="292" r="4" opacity=".8"/><circle cx="530" cy="292" r="4" opacity=".8"/>
	</g>
	<rect width="1200" height="705" fill="url(#veil)"/>
</svg>