<svg xmlns="http://www.w3.org/2000/svg" viewBox="0 0 1200 705" preserveAspectRatio="xMidYMid slice" fill="none">
	<defs>
		<linearGradient id="bg" x1="0" y1="0" x2="1" y2="1">
			<stop offset="0" stop-color="#4c2840"/>
			<stop offset=".55" stop-color="#7a4268"/>
			<stop offset="1" stop-color="#2c1527"/>
		</linearGradient>
		<radialGradient id="glow" cx=".5" cy=".5" r=".55">
			<stop offset="0" stop-color="#f2d9b8" stop-opacity=".7"/>
			<stop offset="1" stop-color="#f2d9b8" stop-opacity="0"/>
		</radialGradient>
		<linearGradient id="veil" x1="0" y1="0" x2="1" y2="0">
			<stop offset="0" stop-color="#000" stop-opacity="0"/>
			<stop offset="1" stop-color="#000" stop-opacity=".4"/>
		</linearGradient>
	</defs>
	<rect width="1200" height="705" fill="url(#bg)"/>
	<circle cx="620" cy="352" r="210" fill="url(#glow)"/>
	<g stroke="#eed3ad" stroke-opacity=".45" stroke-width="2.5">
		<path d="M620 352m-0 190a190 190 0 1 0-.001-380a190 190 0 0 0 0 380Z"/>
		<circle cx="620" cy="352" r="118"/>
		<circle cx="620" cy="352" r="44"/>
	</g>
	<path d="M540 292c54 22 84 74 80 128-54-22-84-74-80-128Z" fill="#f2d9b8" opacity=".6"/>
	<path d="M700 412c-54-22-84-74-80-128 54 22 84 74 80 128Z" fill="#f2d9b8" opacity=".6"/>
	<path d="M540 292c0-44 36-80 80-80s80 36 80 80" stroke="#f6e4c4" stroke-opacity=".85" stroke-width="3" fill="none"/>
	<g fill="#f6e4c4">
		<circle cx="620" cy="270" r="4.5"/><circle cx="666" cy="432" r="4" opacity=".8"/><circle cx="568" cy="430" r="3.5" opacity=".7"/>
	</g>
	<rect width="1200" height="705" fill="url(#veil)"/>
</svg>